HIERARCHY
ROOT Hips
{
	OFFSET 51.777000 -27.993614 86.788589
	CHANNELS 6 Xposition Yposition Zposition Xrotation Yrotation Zrotation
	JOINT spine
	{
		OFFSET 0.000000 -0.393702 6.846367
		CHANNELS 3 Xrotation Yrotation Zrotation
		JOINT spine1
		{
			OFFSET 0.000000 -0.000002 9.496208
			CHANNELS 3 Xrotation Yrotation Zrotation
			JOINT spine2
			{
				OFFSET 0.000000 -0.000002 9.099091
				CHANNELS 3 Xrotation Yrotation Zrotation
				JOINT Neck
				{
					OFFSET 0.000000 -1.113783 23.361206
					CHANNELS 3 Xrotation Yrotation Zrotation
					JOINT Head
					{
						OFFSET 0.000000 0.000000 7.058014
						CHANNELS 3 Xrotation Yrotation Zrotation
						End Site
						{
							OFFSET 0.000000 5.634186 17.084396
						}
					}
				}
				JOINT RightShoulder
				{
					OFFSET -3.831360 0.533491 9.826309
					CHANNELS 3 Xrotation Yrotation Zrotation
					JOINT RightArm
					{
						OFFSET 0.000000 -0.000004 12.888107
						CHANNELS 3 Xrotation Yrotation Zrotation
						JOINT RightArmRoll
						{
							OFFSET 0.000000 0.000000 6.506165
							CHANNELS 3 Xrotation Yrotation Zrotation
							JOINT RightForeArm
							{
								OFFSET 0.000000 -0.000004 18.950104
								CHANNELS 3 Xrotation Yrotation Zrotation
								JOINT RightForeArmRoll
								{
									OFFSET 0.000000 0.000000 7.300919
									CHANNELS 3 Xrotation Yrotation Zrotation
									JOINT RightHand
									{
										OFFSET 0.000000 -0.000004 14.651398
										CHANNELS 3 Xrotation Yrotation Zrotation
										End Site
										{
											OFFSET 0.000000 0.000000 0.100006
										}
									}
								}
							}
						}
					}
				}
				JOINT LeftShoulder
				{
					OFFSET 3.831360 0.533491 9.826309
					CHANNELS 3 Xrotation Yrotation Zrotation
					JOINT LeftArm
					{
						OFFSET 0.000000 -0.000004 12.888107
						CHANNELS 3 Xrotation Yrotation Zrotation
						JOINT LeftArmRoll
						{
							OFFSET 0.000000 0.000000 6.506165
							CHANNELS 3 Xrotation Yrotation Zrotation
							JOINT LeftForeArm
							{
								OFFSET 0.000000 -0.000004 18.950104
								CHANNELS 3 Xrotation Yrotation Zrotation
								JOINT LeftForeArmRoll
								{
									OFFSET 0.000000 0.000000 7.300919
									CHANNELS 3 Xrotation Yrotation Zrotation
									JOINT LeftHand
									{
										OFFSET 0.000000 -0.000004 14.651398
										CHANNELS 3 Xrotation Yrotation Zrotation
										End Site
										{
											OFFSET 0.000000 0.000000 0.100006
										}
									}
								}
							}
						}
					}
				}
			}
		}
	}
	JOINT RightUpLeg
	{
		OFFSET -6.068371 0.933477 -1.112778
		CHANNELS 3 Xrotation Yrotation Zrotation
		JOINT RightUpLegRoll
		{
			OFFSET 0.000000 -0.000004 17.179604
			CHANNELS 3 Xrotation Yrotation Zrotation
			JOINT RightLeg
			{
				OFFSET 0.000000 0.000004 -21.274300
				CHANNELS 3 Xrotation Yrotation Zrotation
				JOINT RightLegRoll
				{
					OFFSET 0.000000 -0.000004 21.343903
					CHANNELS 3 Xrotation Yrotation Zrotation
					JOINT RightFoot
					{
						OFFSET 0.000000 -0.000002 17.765198
						CHANNELS 3 Xrotation Yrotation Zrotation
						JOINT RightToeBase
						{
							OFFSET 0.000000 -0.000004 14.850800
							CHANNELS 3 Xrotation Yrotation Zrotation
							End Site
							{
								OFFSET 0.006294 0.829004 7.192123
							}
						}
					}
				}
			}
		}
	}
	JOINT LeftUpLeg
	{
		OFFSET 6.068371 0.933477 -1.112778
		CHANNELS 3 Xrotation Yrotation Zrotation
		JOINT LeftUpLegRoll
		{
			OFFSET 0.000000 -0.000004 17.179703
			CHANNELS 3 Xrotation Yrotation Zrotation
			JOINT LeftLeg
			{
				OFFSET 0.000000 -0.000004 21.274200
				CHANNELS 3 Xrotation Yrotation Zrotation
				JOINT LeftLegRoll
				{
					OFFSET 0.000000 -0.000002 21.541214
					CHANNELS 3 Xrotation Yrotation Zrotation
					JOINT LeftFoot
					{
						OFFSET 0.000000 -0.000004 17.567902
						CHANNELS 3 Xrotation Yrotation Zrotation
						JOINT LeftToeBase
						{
							OFFSET 0.000000 -0.000002 14.850800
							CHANNELS 3 Xrotation Yrotation Zrotation
							End Site
							{
								OFFSET -0.028210 0.829002 7.192123
							}
						}
					}
				}
			}
		}
	}
}
MOTION
Frames: 7
Frame Time: 0.041667
53.605305 -10.477797 74.513916 36.407729 -5.425037 -4.984938 -0.224538 -0.030003 0.599706 3.554112 -0.056443 1.199356 5.199048 -0.042073 1.199938 -17.339304 17.626773 2.721107 14.498564 -15.074572 -0.138194 -7.327471 -47.112401 -7.641715 120.490343 -22.060963 107.621296 -0.000003 -0.000004 -0.000012 0.262131 -31.350039 -1.776307 0.000000 0.000004 -3.242100 -5.000203 -7.999971 0.000040 -19.047728 65.156241 22.481028 111.763307 23.378759 -109.598185 0.000009 0.000001 0.000000 0.272370 32.371316 2.815696 0.000000 -0.000005 3.294037 -5.000204 8.000684 -0.000087 -84.697433 -169.880588 -1.309484 179.999991 -0.000005 -0.394000 125.253566 -9.442738 -5.130605 -0.000000 0.000003 0.638756 71.081560 7.808010 -0.527338 25.456952 -7.355618 0.000013 -81.751436 168.834121 -1.372074 -0.000005 -0.000004 -0.240242 -57.624974 13.658437 6.988006 -0.000004 -0.000000 0.891491 75.981121 -8.514917 3.542776 25.456955 7.355614 -0.000010 
53.602104 -10.540104 74.607712 36.313233 -5.414149 -4.971228 -0.228662 -0.034773 0.603006 3.545918 -0.066004 1.205980 5.190861 -0.051553 1.206684 -17.335606 17.600042 2.710736 14.457274 -15.047877 -0.149926 -7.339889 -47.193557 -7.664465 120.455659 -22.070421 107.837923 -0.000001 -0.000004 -0.000013 0.261237 -31.258948 -1.867070 0.000001 0.000007 -3.246121 -5.000203 -7.999965 0.000041 -19.015586 65.176342 22.444118 111.831309 23.373633 -109.894527 0.000010 0.000001 0.000000 0.270549 32.197621 2.866684 -0.000000 -0.000006 3.296928 -5.000204 8.000689 -0.000086 -84.431554 -169.872720 -1.317103 179.999991 -0.000005 -0.393005 125.450057 -9.446122 -5.108648 0.000000 0.000004 0.633986 71.056746 7.801867 -0.507028 25.456952 -7.355614 0.000012 -81.477006 168.866988 -1.367272 -0.000007 -0.000005 -0.238718 -57.404673 13.694414 6.955760 -0.000004 0.000001 0.894587 75.944908 -8.519193 3.547007 25.456950 7.355613 -0.000010 
53.602505 -10.600906 74.691818 36.218567 -5.402412 -4.956617 -0.232589 -0.039827 0.606254 3.538134 -0.076136 1.212498 5.183063 -0.061607 1.213328 -17.333424 17.572694 2.699084 14.416282 -15.019292 -0.163369 -7.354569 -47.268666 -7.689565 120.426398 -22.081643 108.052657 -0.000002 -0.000004 -0.000012 0.260331 -31.166744 -1.949902 0.000000 0.000009 -3.249669 -5.000202 -7.999973 0.000041 -18.985103 65.195399 22.409151 111.900260 23.369923 -110.185349 0.000009 0.000001 0.000001 0.268748 32.025422 2.909459 0.000000 -0.000006 3.299381 -5.000205 8.000685 -0.000087 -84.166297 -169.865234 -1.325456 179.999991 -0.000005 -0.393003 125.645305 -9.448744 -5.086035 0.000000 0.000004 0.629182 71.032123 7.795362 -0.485592 25.456952 -7.355612 0.000013 -81.203313 168.900866 -1.363867 -0.000003 -0.000004 -0.237170 -57.185523 13.728120 6.923358 -0.000005 0.000000 0.897069 75.909117 -8.523183 3.550606 25.456953 7.355613 -0.000010 
53.598900 -10.662502 74.786713 36.123675 -5.389978 -4.941186 -0.236340 -0.045119 0.609438 3.530683 -0.086741 1.218902 5.175613 -0.072134 1.219853 -17.332479 17.544948 2.686399 14.375701 -14.989017 -0.178231 -7.371200 -47.338241 -7.716624 120.402301 -22.095182 108.264727 -0.000003 -0.000005 -0.000013 0.259432 -31.073850 -2.025321 0.000002 0.000006 -3.252800 -5.000204 -7.999962 0.000042 -18.956681 65.213861 22.376521 111.969743 23.368000 -110.470544 0.000010 0.000001 0.000001 0.266976 31.855029 2.945114 0.000000 -0.000006 3.301468 -5.000204 8.000686 -0.000085 -83.901450 -169.858007 -1.333723 179.999991 -0.000005 -0.391994 125.839501 -9.450659 -5.063701 0.000000 0.000003 0.624348 71.007917 7.788505 -0.463550 25.456953 -7.355614 0.000011 -80.930474 168.935344 -1.360176 -0.000005 -0.000004 -0.235602 -56.967551 13.759871 6.891128 -0.000005 0.000000 0.899014 75.873477 -8.527016 3.553733 25.456948 7.355613 -0.000010 
53.599308 -10.707899 74.880898 36.028650 -5.376982 -4.925005 -0.239953 -0.050601 0.612549 3.523522 -0.097721 1.225147 5.168458 -0.083039 1.226231 -17.332741 17.516611 2.672846 14.335580 -14.957522 -0.194151 -7.389396 -47.402817 -7.745240 120.383532 -22.110432 108.474701 -0.000002 -0.000004 -0.000011 0.258533 -30.980854 -2.093801 0.000001 0.000006 -3.255528 -5.000205 -7.999969 0.000039 -18.930329 65.231824 22.346282 112.039179 23.368017 -110.749837 0.000008 0.000001 0.000001 0.265228 31.686433 2.974778 -0.000000 -0.000006 3.303249 -5.000204 8.000684 -0.000088 -83.637237 -169.850945 -1.343408 179.999991 -0.000004 -0.390995 126.032768 -9.451898 -5.040669 0.000001 0.000003 0.619493 70.983834 7.781384 -0.440563 25.456953 -7.355613 0.000012 -80.658469 168.970697 -1.356475 -0.000005 -0.000004 -0.234018 -56.750457 13.789938 6.858851 -0.000005 0.000000 0.900497 75.837885 -8.530692 3.556279 25.456952 7.355613 -0.000010 
53.592304 -10.765303 74.964897 35.933301 -5.363571 -4.908148 -0.243452 -0.056221 0.615574 3.516585 -0.108982 1.231227 5.161501 -0.094227 1.232441 -17.333924 17.487999 2.658712 14.296010 -14.924906 -0.210876 -7.408822 -47.462807 -7.775004 120.369107 -22.128290 108.680399 -0.000001 -0.000004 -0.000013 0.257650 -30.888455 -2.155834 0.000002 0.000005 -3.257910 -5.000202 -7.999969 0.000039 -18.906312 65.249576 22.318721 112.108539 23.370001 -111.023905 0.000009 0.000001 0.000000 0.263506 31.519738 2.999545 -0.000001 -0.000005 3.304791 -5.000204 8.000686 -0.000090 -83.373312 -169.844101 -1.352505 179.999991 -0.000004 -0.390995 126.225092 -9.452454 -5.017895 -0.000000 0.000004 0.614622 70.959990 7.774023 -0.417136 25.456955 -7.355613 0.000013 -80.386887 169.006734 -1.353627 -0.000009 -0.000004 -0.232422 -56.533991 13.818601 6.826530 -0.000004 0.000000 0.901595 75.802232 -8.534233 3.558338 25.456953 7.355613 -0.000010 
53.601402 -10.844704 75.036118 35.837746 -5.349887 -4.890700 -0.246891 -0.061936 0.618502 3.509793 -0.120427 1.237106 5.154725 -0.105601 1.238466 -17.335920 17.459031 2.644163 14.257055 -14.891653 -0.228055 -7.429134 -47.518934 -7.805568 120.359271 -22.148162 108.882716 -0.000001 -0.000004 -0.000013 0.256777 -30.797057 -2.211916 0.000001 0.000005 -3.259988 -5.000201 -7.999973 0.000041 -18.884764 65.267334 22.294007 112.177196 23.374101 -111.292653 0.000010 0.000001 0.000000 0.261815 31.355240 3.020552 0.000000 -0.000004 3.306160 -5.000203 8.000685 -0.000088 -83.109892 -169.837339 -1.362500 179.999991 -0.000006 -0.390000 126.416652 -9.452376 -4.994395 -0.000000 0.000004 0.609746 70.936323 7.766527 -0.393348 25.456953 -7.355616 0.000013 -80.116090 169.043371 -1.349768 -0.000007 -0.000005 -0.230816 -56.318052 13.846143 6.794175 -0.000005 0.000001 0.902383 75.766496 -8.537618 3.560104 25.456955 7.355613 -0.000010 
